<svg id="visual" viewBox="0 0 900 600" width="900" height="600" xmlns="http://www.w3.org/2000/svg" xmlns:xlink="http://www.w3.org/1999/xlink" version="1.1"><rect x="0" y="0" width="900" height="600" fill="#001220"></rect><path d="M0 437L25 434.8C50 432.7 100 428.3 150 429.8C200 431.3 250 438.7 300 443.7C350 448.7 400 451.3 450 446.8C500 442.3 550 430.7 600 427.3C650 424 700 429 750 435.7C800 442.3 850 450.7 875 454.8L900 459L900 601L875 601C850 601 800 601 750 601C700 601 650 601 600 601C550 601 500 601 450 601C400 601 350 601 300 601C250 601 200 601 150 601C100 601 50 601 25 601L0 601Z" fill="#4a565c"></path><path d="M0 470L25 475.5C50 481 100 492 150 498.8C200 505.7 250 508.3 300 504.7C350 501 400 491 450 491.2C500 491.3 550 501.7 600 503C650 504.3 700 496.7 750 492.7C800 488.7 850 488.3 875 488.2L900 488L900 601L875 601C850 601 800 601 750 601C700 601 650 601 600 601C550 601 500 601 450 601C400 601 350 601 300 601C250 601 200 601 150 601C100 601 50 601 25 601L0 601Z" fill="#798f99"></path><path d="M0 556L25 552.3C50 548.7 100 541.3 150 538.8C200 536.3 250 538.7 300 542.5C350 546.3 400 551.7 450 550.7C500 549.7 550 542.3 600 539.7C650 537 700 539 750 536.7C800 534.3 850 527.7 875 524.3L900 521L900 601L875 601C850 601 800 601 750 601C700 601 650 601 600 601C550 601 500 601 450 601C400 601 350 601 300 601C250 601 200 601 150 601C100 601 50 601 25 601L0 601Z" fill="#abcddb"></path></svg>